<?xml version="1.0" standalone="no"?>
<!DOCTYPE svg PUBLIC "-//W3C//DTD SVG 20010904//EN"
 "http://www.w3.org/TR/2001/REC-SVG-20010904/DTD/svg10.dtd">
<svg version="1.0" xmlns="http://www.w3.org/2000/svg"
 width="300.000000pt" height="300.000000pt" viewBox="0 0 300.000000 300.000000"
 preserveAspectRatio="xMidYMid meet">
<metadata>
Created by potrace 1.14, written by Peter Selinger 2001-2017
</metadata>
<g transform="translate(0.000000,300.000000) scale(0.100000,-0.100000)"
fill="#000000" stroke="none">
<path d="M268 2981 c-31 -10 -72 -28 -92 -40 -55 -34 -123 -116 -148 -179
l-23 -57 0 -1210 0 -1210 27 -57 c37 -80 105 -149 186 -189 l67 -34 1210 0
1210 0 57 23 c67 27 148 97 184 158 56 95 54 50 51 1339 l-2 1190 -27 57 c-37
80 -105 149 -186 189 l-67 34 -1195 2 c-1133 2 -1198 1 -1252 -16z"/>
</g>
</svg>
